<?xml version="1.0" encoding="utf-8"?>
<svg width="550px" height="174px" viewBox="0 0 550 174" version="1.1" xmlns:xlink="http://www.w3.org/1999/xlink" xmlns="http://www.w3.org/2000/svg">
  <g id="--LOGO--" fill="#3FACD1">
    <path d="M247.372 116.148Q253.841 104.131 253.841 87Q253.841 69.8693 247.372 57.8523Q240.903 45.8352 229.807 39.5199Q218.71 33.2045 204.801 33.2045Q190.841 33.2045 179.744 39.5199Q168.648 45.8352 162.205 57.8523Q155.761 69.8693 155.761 87Q155.761 104.028 162.205 116.071Q168.648 128.114 179.744 134.455Q190.841 140.795 204.801 140.795Q218.71 140.795 229.807 134.48Q240.903 128.165 247.372 116.148ZM339.648 68.4886Q337.551 61.125 331.901 56.9574Q326.25 52.7898 317.71 52.7898Q305.693 52.7898 298.253 61.6619Q290.813 70.5341 290.813 86.8977Q290.813 103.312 298.125 112.261Q305.438 121.21 317.915 121.21Q328.96 121.21 335.276 115.457Q341.591 109.705 341.795 99.9886L319.295 99.9886L319.295 83.3182L363.119 83.3182L363.119 96.5114Q363.119 110.267 357.29 120.213Q351.46 130.159 341.259 135.477Q331.057 140.795 317.813 140.795Q303.085 140.795 291.938 134.276Q280.79 127.756 274.577 115.713Q268.364 103.67 268.364 87.1023Q268.364 70.125 274.858 58.0568Q281.352 45.9886 292.449 39.5966Q303.545 33.2045 317.352 33.2045Q329.216 33.2045 338.83 37.7045Q348.443 42.2045 354.58 50.1562Q360.716 58.108 362.148 68.4886L339.648 68.4886ZM469.509 116.148Q475.977 104.131 475.977 87Q475.977 69.8693 469.509 57.8523Q463.04 45.8352 451.943 39.5199Q440.847 33.2045 426.938 33.2045Q412.977 33.2045 401.881 39.5199Q390.784 45.8352 384.341 57.8523Q377.898 69.8693 377.898 87Q377.898 104.028 384.341 116.071Q390.784 128.114 401.881 134.455Q412.977 140.795 426.938 140.795Q440.847 140.795 451.943 134.48Q463.04 128.165 469.509 116.148ZM75.8864 34.6364L75.8864 139.364L142.926 139.364L142.926 121.108L98.0284 121.108L98.0284 34.6364L75.8864 34.6364ZM224.131 61.5596Q231.392 70.3295 231.392 87Q231.392 103.619 224.131 112.415Q216.869 121.21 204.801 121.21Q192.733 121.21 185.472 112.415Q178.21 103.619 178.21 87Q178.21 70.3295 185.472 61.5596Q192.733 52.7898 204.801 52.7898Q216.869 52.7898 224.131 61.5596ZM446.267 61.5596Q453.528 70.3295 453.528 87Q453.528 103.619 446.267 112.415Q439.006 121.21 426.938 121.21Q414.869 121.21 407.608 112.415Q400.347 103.619 400.347 87Q400.347 70.3295 407.608 61.5596Q414.869 52.7898 426.938 52.7898Q439.006 52.7898 446.267 61.5596Z" />
  </g>
</svg>