<?xml version="1.0" encoding="utf-8"?>
<svg width="1146px" height="174px" viewBox="0 0 1146 174" version="1.1" xmlns:xlink="http://www.w3.org/1999/xlink" xmlns="http://www.w3.org/2000/svg">
  <g id="--SIMPLE--LOGO--" fill="#3FACD1">
    <path d="M127.406 55.142Q132.085 58.5682 132.699 64.7557L153.92 64.7557Q153.767 55.3977 148.909 48.2898Q144.051 41.1818 135.332 37.1932Q126.614 33.2045 114.955 33.2045Q103.5 33.2045 94.5 37.1676Q85.5 41.1307 80.3608 48.2642Q75.2216 55.3977 75.2727 64.9091Q75.2216 76.4659 82.892 83.3693Q90.5625 90.2727 103.807 93.4432L115.21 96.3068Q123.75 98.3523 128.352 101.216Q132.955 104.08 133.006 109.398Q132.955 115.125 127.918 118.705Q122.881 122.284 114.443 122.284Q105.801 122.284 100.151 118.321Q94.5 114.358 93.9375 106.483L72.5114 106.483Q72.9204 123.46 84.2727 132.153Q95.625 140.847 114.699 140.847Q133.875 140.847 144.588 132.332Q155.301 123.818 155.352 109.449Q155.352 100.705 151.287 94.5937Q147.222 88.4829 140.139 84.5966Q133.057 80.7102 123.955 78.6648L114.545 76.4148Q107.744 74.8295 102.81 71.9403Q97.875 69.0511 97.9773 63.4261Q97.9773 58.3636 102.324 55.0398Q106.67 51.7159 114.801 51.7159Q122.727 51.7159 127.406 55.142ZM843.776 116.148Q850.244 104.131 850.244 87Q850.244 69.8693 843.776 57.8523Q837.307 45.8352 826.21 39.5199Q815.114 33.2045 801.204 33.2045Q787.244 33.2045 776.148 39.5199Q765.051 45.8352 758.608 57.8523Q752.165 69.8693 752.165 87Q752.165 104.028 758.608 116.071Q765.051 128.114 776.148 134.455Q787.244 140.795 801.204 140.795Q815.114 140.795 826.21 134.48Q837.307 128.165 843.776 116.148ZM936.051 68.4886Q933.954 61.125 928.304 56.9574Q922.653 52.7898 914.114 52.7898Q902.096 52.7898 894.656 61.6619Q887.216 70.5341 887.216 86.8977Q887.216 103.312 894.528 112.261Q901.841 121.21 914.318 121.21Q925.364 121.21 931.679 115.457Q937.994 109.705 938.199 99.9886L915.699 99.9886L915.699 83.3182L959.523 83.3182L959.523 96.5114Q959.523 110.267 953.693 120.213Q947.864 130.159 937.662 135.477Q927.46 140.795 914.216 140.795Q899.489 140.795 888.341 134.276Q877.193 127.756 870.98 115.713Q864.767 103.67 864.767 87.1023Q864.767 70.125 871.261 58.0568Q877.756 45.9886 888.852 39.5966Q899.949 33.2045 913.756 33.2045Q925.619 33.2045 935.233 37.7045Q944.847 42.2045 950.983 50.1562Q957.119 58.108 958.551 68.4886L936.051 68.4886ZM1065.91 116.148Q1072.38 104.131 1072.38 87Q1072.38 69.8693 1065.91 57.8523Q1059.44 45.8352 1048.35 39.5199Q1037.25 33.2045 1023.34 33.2045Q1009.38 33.2045 998.284 39.5199Q987.187 45.8352 980.744 57.8523Q974.301 69.8693 974.301 87Q974.301 104.028 980.744 116.071Q987.187 128.114 998.284 134.455Q1009.38 140.795 1023.34 140.795Q1037.25 140.795 1048.35 134.48Q1059.44 128.165 1065.91 116.148ZM192.324 139.364L192.324 34.6364L170.182 34.6364L170.182 139.364L192.324 139.364ZM210.58 34.6364L237.886 34.6364L266.727 105L267.955 105L296.795 34.6364L324.102 34.6364L324.102 139.364L302.625 139.364L302.625 71.1989L301.756 71.1989L274.653 138.852L260.028 138.852L232.926 70.9432L232.057 70.9432L232.057 139.364L210.58 139.364L210.58 34.6364ZM342.307 34.6364L342.307 139.364L364.449 139.364L364.449 105.409L383.063 105.409Q395.131 105.409 403.645 100.935Q412.159 96.4602 416.659 88.5085Q421.159 80.5568 421.159 70.125Q421.159 59.6932 416.736 51.6903Q412.313 43.6875 403.926 39.1619Q395.54 34.6364 383.625 34.6364L342.307 34.6364ZM435.58 139.364L435.58 34.6364L457.722 34.6364L457.722 121.108L502.619 121.108L502.619 139.364L435.58 139.364ZM517.295 34.6364L517.295 139.364L588.068 139.364L588.068 121.108L539.438 121.108L539.438 96.1023L584.233 96.1023L584.233 77.8466L539.438 77.8466L539.438 52.892L587.864 52.892L587.864 34.6364L517.295 34.6364ZM672.29 139.364L672.29 34.6364L694.432 34.6364L694.432 121.108L739.329 121.108L739.329 139.364L672.29 139.364ZM379.483 87.6648L364.449 87.6648L364.449 52.7386L379.381 52.7386Q388.994 52.7386 393.673 57.5199Q398.352 62.3011 398.352 70.125Q398.352 77.8977 393.673 82.7812Q388.994 87.6648 379.483 87.6648ZM820.534 61.5596Q827.795 70.3295 827.795 87Q827.795 103.619 820.534 112.415Q813.273 121.21 801.204 121.21Q789.136 121.21 781.875 112.415Q774.614 103.619 774.614 87Q774.614 70.3295 781.875 61.5596Q789.136 52.7898 801.204 52.7898Q813.273 52.7898 820.534 61.5596ZM1042.67 61.5596Q1049.93 70.3295 1049.93 87Q1049.93 103.619 1042.67 112.415Q1035.41 121.21 1023.34 121.21Q1011.27 121.21 1004.01 112.415Q996.75 103.619 996.75 87Q996.75 70.3295 1004.01 61.5596Q1011.27 52.7898 1023.34 52.7898Q1035.41 52.7898 1042.67 61.5596Z" />
  </g>
</svg>