<?xml version="1.0" encoding="utf-8"?>
<svg width="2293px" height="349px" viewBox="0 0 2293 349" version="1.1" xmlns:xlink="http://www.w3.org/1999/xlink" xmlns="http://www.w3.org/2000/svg">
  <g id="--SIMPLE--LOGO--" fill="#3FACD1">
    <path d="M254.813 110.784Q264.17 117.636 265.398 130.011L307.841 130.011Q307.534 111.295 297.818 97.0796Q288.102 82.8637 270.665 74.8864Q253.227 66.9091 229.909 66.9091Q207 66.9091 189 74.8352Q171 82.7614 160.722 97.0284Q150.443 111.295 150.545 130.318Q150.443 153.432 165.784 167.239Q181.125 181.045 207.614 187.386L230.42 193.114Q247.5 197.205 256.705 202.932Q265.909 208.659 266.011 219.295Q265.909 230.75 255.835 237.909Q245.761 245.068 228.886 245.068Q211.602 245.068 200.301 237.142Q189 229.216 187.875 213.466L145.023 213.466Q145.841 247.42 168.545 264.807Q191.25 282.193 229.398 282.193Q267.75 282.193 289.176 265.165Q310.602 248.136 310.705 219.398Q310.705 201.909 302.574 189.688Q294.443 177.466 280.278 169.693Q266.114 161.92 247.909 157.83L229.091 153.33Q215.489 150.159 205.619 144.381Q195.75 138.602 195.955 127.352Q195.955 117.227 204.648 110.58Q213.341 103.932 229.602 103.932Q245.455 103.932 254.813 110.784ZM1687.55 232.795Q1700.49 208.761 1700.49 174.5Q1700.49 140.239 1687.55 116.205Q1674.61 92.1705 1652.42 79.5398Q1630.23 66.9091 1602.41 66.9091Q1574.49 66.9091 1552.3 79.5398Q1530.1 92.1705 1517.22 116.205Q1504.33 140.239 1504.33 174.5Q1504.33 208.557 1517.22 232.642Q1530.1 256.727 1552.3 269.409Q1574.49 282.091 1602.41 282.091Q1630.23 282.091 1652.42 269.46Q1674.61 256.83 1687.55 232.795ZM1872.1 137.477Q1867.91 122.75 1856.61 114.415Q1845.31 106.08 1828.23 106.08Q1804.19 106.08 1789.31 123.824Q1774.43 141.568 1774.43 174.295Q1774.43 207.125 1789.06 225.023Q1803.68 242.92 1828.64 242.92Q1850.73 242.92 1863.36 231.415Q1875.99 219.909 1876.4 200.477L1831.4 200.477L1831.4 167.136L1919.05 167.136L1919.05 193.523Q1919.05 221.034 1907.39 240.926Q1895.73 260.818 1875.32 271.455Q1854.92 282.091 1828.43 282.091Q1798.98 282.091 1776.68 269.051Q1754.39 256.011 1741.96 231.926Q1729.53 207.841 1729.53 174.705Q1729.53 140.75 1742.52 116.614Q1755.51 92.4773 1777.7 79.6932Q1799.9 66.9091 1827.51 66.9091Q1851.24 66.9091 1870.47 75.9091Q1889.69 84.9091 1901.97 100.813Q1914.24 116.716 1917.1 137.477L1872.1 137.477ZM2131.82 232.795Q2144.76 208.761 2144.76 174.5Q2144.76 140.239 2131.82 116.205Q2118.89 92.1705 2096.69 79.5398Q2074.5 66.9091 2046.68 66.9091Q2018.76 66.9091 1996.57 79.5398Q1974.37 92.1705 1961.49 116.205Q1948.6 140.239 1948.6 174.5Q1948.6 208.557 1961.49 232.642Q1974.37 256.727 1996.57 269.409Q2018.76 282.091 2046.68 282.091Q2074.5 282.091 2096.69 269.46Q2118.89 256.83 2131.82 232.795ZM384.648 279.227L384.648 69.7727L340.364 69.7727L340.364 279.227L384.648 279.227ZM421.159 69.7727L475.773 69.7727L533.455 210.5L535.909 210.5L593.591 69.7727L648.205 69.7727L648.205 279.227L605.25 279.227L605.25 142.898L603.511 142.898L549.307 278.205L520.057 278.205L465.852 142.386L464.114 142.386L464.114 279.227L421.159 279.227L421.159 69.7727ZM684.614 69.7727L684.614 279.227L728.898 279.227L728.898 211.318L766.125 211.318Q790.261 211.318 807.29 202.369Q824.318 193.42 833.318 177.517Q842.318 161.614 842.318 140.75Q842.318 119.886 833.472 103.881Q824.625 87.875 807.852 78.8239Q791.08 69.7727 767.25 69.7727L684.614 69.7727ZM871.159 279.227L871.159 69.7727L915.443 69.7727L915.443 242.716L1005.24 242.716L1005.24 279.227L871.159 279.227ZM1034.59 69.7727L1034.59 279.227L1176.14 279.227L1176.14 242.716L1078.87 242.716L1078.87 192.705L1168.47 192.705L1168.47 156.193L1078.87 156.193L1078.87 106.284L1175.73 106.284L1175.73 69.7727L1034.59 69.7727ZM1344.58 279.227L1344.58 69.7727L1388.86 69.7727L1388.86 242.716L1478.66 242.716L1478.66 279.227L1344.58 279.227ZM758.966 175.83L728.898 175.83L728.898 105.977L758.761 105.977Q777.989 105.977 787.347 115.54Q796.705 125.102 796.705 140.75Q796.705 156.295 787.347 166.063Q777.989 175.83 758.966 175.83ZM1641.07 123.619Q1655.59 141.159 1655.59 174.5Q1655.59 207.739 1641.07 225.33Q1626.55 242.92 1602.41 242.92Q1578.27 242.92 1563.75 225.33Q1549.23 207.739 1549.23 174.5Q1549.23 141.159 1563.75 123.619Q1578.27 106.08 1602.41 106.08Q1626.55 106.08 1641.07 123.619ZM2085.34 123.619Q2099.86 141.159 2099.86 174.5Q2099.86 207.739 2085.34 225.33Q2070.82 242.92 2046.68 242.92Q2022.55 242.92 2008.02 225.33Q1993.5 207.739 1993.5 174.5Q1993.5 141.159 2008.02 123.619Q2022.55 106.08 2046.68 106.08Q2070.82 106.08 2085.34 123.619Z" />
  </g>
</svg>